<?xml version="1.0" encoding="UTF-8"?>
<svg version="1.1" xmlns="http://www.w3.org/2000/svg" width="3620" height="1325">
<path d="M0 0 C91.66061049 -1.8529773 181.03165037 24.16613028 254.2421875 80.06640625 C254.82129883 80.50662109 255.40041016 80.94683594 255.99707031 81.40039062 C262.89977503 86.66875021 269.60393914 92.14523223 276.1796875 97.81640625 C277.08364258 98.59443604 277.08364258 98.59443604 278.00585938 99.38818359 C281.71953893 102.62582947 285.22934978 106.01229309 288.69067383 109.51757812 C290.42795806 111.25185526 292.23784783 112.86276092 294.1171875 114.44140625 C300.67492618 120.11124994 306.67798219 126.27711571 312.3125 132.859375 C314.19482599 135.01223772 316.13504114 137.10248791 318.09008789 139.18920898 C324.05669682 145.58178163 329.52713454 152.26470398 334.82861328 159.21582031 C336.25813392 161.08728257 337.70102664 162.94790522 339.14453125 164.80859375 C380.6938641 218.80146131 405.82896922 282.81271808 415.2421875 350.06640625 C415.4899292 351.76821045 415.4899292 351.76821045 415.74267578 353.50439453 C420.94974281 390.76157837 420.76120222 430.85842595 415.2421875 468.06640625 C415.06526367 469.27603027 414.88833984 470.4856543 414.70605469 471.73193359 C403.76565192 544.33728358 374.32151837 613.80761728 325.7265625 669.31103516 C324.62085611 670.61860571 323.54763562 671.95378154 322.4921875 673.30224609 C315.93078364 681.62116884 308.57408875 689.03876836 301.06835938 696.50097656 C298.8713591 698.68725501 296.68526072 700.88402563 294.5 703.08203125 C287.0491593 710.53988994 279.54758032 717.56220477 271.2421875 724.06640625 C270.13961646 725.00030945 269.04332635 725.94174532 267.95703125 726.89453125 C197.12694333 788.65916488 103.6130805 817.27233414 10.8046875 817.31640625 C8.89326965 817.31741837 8.89326965 817.31741837 6.9432373 817.31845093 C-12.14422762 817.30239414 -30.8472148 816.86104876 -49.7578125 814.06640625 C-51.51424072 813.81697266 -51.51424072 813.81697266 -53.30615234 813.5625 C-96.48513191 807.27175429 -138.11842125 794.23453277 -176.85400391 774.05078125 C-178.79569803 773.04681732 -180.74992193 772.0711804 -182.70703125 771.09765625 C-200.80777808 761.96272017 -217.68320969 750.38456983 -233.7578125 738.06640625 C-234.33257324 737.6290918 -234.90733398 737.19177734 -235.49951172 736.74121094 C-256.70976396 720.55459484 -277.69319592 702.40760342 -295.03125 682.0703125 C-296.97522296 679.81407239 -298.99104768 677.63276732 -301.0078125 675.44140625 C-306.59093142 669.23689467 -311.70547375 662.70279052 -316.7578125 656.06640625 C-317.58055664 654.98842773 -317.58055664 654.98842773 -318.41992188 653.88867188 C-327.19460193 642.33782186 -335.28810386 630.50101106 -342.7578125 618.06640625 C-343.24991211 617.24978516 -343.74201172 616.43316406 -344.24902344 615.59179688 C-398.48711123 524.90091488 -411.87029195 411.65350294 -385.96533203 302.86962891 C-371.90681339 247.72889901 -345.68745555 196.38990529 -309.16845703 152.76513672 C-307.20130332 150.39624515 -305.29887253 147.97670232 -303.3828125 145.56640625 C-294.53662952 134.79014699 -284.64796909 124.87710141 -274.8203125 115.00390625 C-274.13517578 114.31409668 -273.45003906 113.62428711 -272.74414062 112.91357422 C-268.2447253 108.42834231 -263.5762951 104.2047785 -258.7578125 100.06640625 C-257.67499533 99.11678082 -256.59292052 98.166308 -255.51171875 97.21484375 C-184.34403359 35.10526714 -94.13345546 2.26666961 0 0 Z M-159.7578125 232.06640625 C-160.37865723 232.66533691 -160.99950195 233.26426758 -161.63916016 233.88134766 C-169.54031509 241.54517128 -177.08548205 249.28639019 -183.7578125 258.06640625 C-184.17450195 258.60668457 -184.59119141 259.14696289 -185.02050781 259.70361328 C-225.61209301 312.50820278 -241.02757847 378.28371573 -232.7578125 444.06640625 C-229.1929636 469.60750014 -222.25988646 493.96344327 -210.7578125 517.06640625 C-210.39042969 517.81212891 -210.02304687 518.55785156 -209.64453125 519.32617188 C-201.99851177 534.71277292 -192.56429914 548.73040125 -181.7578125 562.06640625 C-181.31244141 562.61619141 -180.86707031 563.16597656 -180.40820312 563.73242188 C-169.19363419 577.44614722 -156.81891946 590.25961662 -142.7578125 601.06640625 C-141.77941406 601.85015625 -140.80101562 602.63390625 -139.79296875 603.44140625 C-97.05649499 637.47118578 -44.94061873 653.59097031 9.3046875 653.37890625 C10.79361511 653.37567352 10.79361511 653.37567352 12.31262207 653.37237549 C66.16172544 653.18484993 118.04001123 637.2123326 160.2421875 603.06640625 C160.80695801 602.61056152 161.37172852 602.1547168 161.95361328 601.68505859 C172.62707904 592.99938909 183.62331464 583.85777305 192.4296875 573.24609375 C193.87197101 571.51162349 195.36186299 569.81676843 196.8671875 568.13671875 C209.31070382 554.19179095 219.66993599 538.66150246 228.2421875 522.06640625 C228.6453418 521.29135742 229.04849609 520.51630859 229.46386719 519.71777344 C239.98695576 499.24587707 247.04543927 477.68492722 251.2421875 455.06640625 C251.40589844 454.21401367 251.56960938 453.36162109 251.73828125 452.48339844 C256.92693826 424.14947185 256.79095055 391.32454535 251.2421875 363.06640625 C250.93619629 361.49584473 250.93619629 361.49584473 250.62402344 359.89355469 C243.5902646 324.92952784 229.83771391 292.54503568 208.2421875 264.06640625 C207.82533691 263.50679199 207.40848633 262.94717773 206.97900391 262.37060547 C168.35898563 210.6365787 112.0879221 176.39049738 48.2421875 166.75390625 C38.58293943 165.38486828 29.002641 164.30296097 19.2421875 164.06640625 C18.58653809 164.04594238 17.93088867 164.02547852 17.25537109 164.00439453 C-49.34682444 162.0978732 -111.82829744 185.76853426 -159.7578125 232.06640625 Z " fill="#010101" transform="translate(721.7578125,102.93359375)"/>
<path d="M0 0 C54.12 0 108.24 0 164 0 C164 269.61 164 539.22 164 817 C109.88 817 55.76 817 0 817 C0 709.42 0 601.84 0 491 C-104.28 491 -208.56 491 -316 491 C-316 598.58 -316 706.16 -316 817 C-370.12 817 -424.24 817 -480 817 C-480 655.3 -480 493.6 -480 327 C-321.6 327 -163.2 327 0 327 C0 219.09 0 111.18 0 0 Z " fill="#010101" transform="translate(1960,103)"/>
<path d="M0 0 C1.07789944 0.00308298 1.07789944 0.00308298 2.17757463 0.00622824 C2.93776022 0.0044752 3.6979458 0.00272216 4.48116732 0.000916 C7.06136099 -0.00378353 9.64149928 -0.00126837 12.22169542 0.00114992 C14.077401 -0.00071613 15.93310618 -0.003016 17.78881073 -0.0057154 C22.91460499 -0.01186654 28.04038302 -0.0116959 33.16618013 -0.01052102 C38.68544059 -0.01031782 44.20469572 -0.01582851 49.72395372 -0.02057859 C60.55341464 -0.02890681 71.38287012 -0.03163452 82.21233398 -0.03219097 C91.02359632 -0.03266567 99.83485687 -0.03471811 108.64611864 -0.0378916 C129.56529523 -0.04527217 150.48447084 -0.05141564 171.40364885 -0.05089304 C172.07347093 -0.05087746 172.74329301 -0.05086188 173.43341273 -0.05084583 C176.82833622 -0.05076272 180.22325971 -0.05066368 183.6181832 -0.05056112 C184.6295317 -0.0505312 184.6295317 -0.0505312 185.66131148 -0.05050068 C187.02478309 -0.05046025 188.38825469 -0.05041845 189.75172629 -0.05037529 C210.91225513 -0.04976406 232.07276787 -0.05723866 253.2332921 -0.07094786 C277.01605223 -0.08634959 300.79880335 -0.09489875 324.58156967 -0.09398463 C337.16853328 -0.09365348 349.75547878 -0.09636397 362.34243822 -0.10716268 C373.07401261 -0.11631029 383.80556071 -0.11840866 394.53713733 -0.11165326 C400.00442919 -0.10840775 405.47167075 -0.10825903 410.93895769 -0.11700651 C477.14387485 -0.21607643 539.15951167 8.78845807 592.03407335 52.13486269 C592.5567882 52.55606386 593.07950304 52.97726503 593.61805773 53.41122988 C609.17478247 65.99359893 624.03234388 80.24767258 635.80848742 96.46494082 C637.08014625 98.19763931 638.39197132 99.89328841 639.71376085 101.58798769 C662.01581163 130.52958031 675.65555699 165.34841915 682.03407335 201.13486269 C682.19778429 202.0188373 682.36149523 202.90281191 682.5301671 203.81357363 C685.06529774 218.06582667 685.2946329 232.26482915 685.28407335 246.69736269 C685.28347918 247.60766237 685.282885 248.51796206 685.28227282 249.45584658 C685.27572874 252.07945715 685.25922829 254.70274594 685.23719835 257.32626894 C685.23280245 258.11079943 685.22840654 258.89532992 685.22387743 259.70363405 C685.21441591 260.44736773 685.2049544 261.1911014 685.19520617 261.95737246 C685.18837816 262.59779986 685.18155016 263.23822725 685.17451525 263.89806154 C684.98011333 266.99427741 684.47280664 270.06372969 684.03407335 273.13486269 C628.92407335 273.13486269 573.81407335 273.13486269 517.03407335 273.13486269 C518.02407335 267.85486269 519.01407335 262.57486269 520.03407335 257.13486269 C520.29219217 253.18210204 520.469468 249.44389323 520.40907335 245.50986269 C520.39964708 244.52912783 520.39022081 243.54839296 520.3805089 242.53793886 C519.90871216 219.73568288 510.56123482 201.68423625 494.6551671 185.75205019 C413.01660888 108.43784577 270.47155337 164.52663091 158.03407335 164.13486269 C158.03407335 379.62486269 158.03407335 595.11486269 158.03407335 817.13486269 C103.91407335 817.13486269 49.79407335 817.13486269 -5.96592665 817.13486269 C-5.98605743 722.13274854 -5.98605743 722.13274854 -5.99157667 692.74840334 C-5.99177401 691.70042327 -5.99197134 690.6524432 -5.99217465 689.57270616 C-5.99879623 654.31261765 -6.00404839 619.05252908 -6.00826979 583.79244021 C-6.00840784 582.64223243 -6.0085459 581.49202465 -6.00868814 580.30696209 C-6.01168068 555.31303991 -6.01445091 530.3191177 -6.01699198 505.32519547 C-6.01823937 493.06912425 -6.01953592 480.81305304 -6.02085829 468.55698183 C-6.02098905 467.33732095 -6.02111981 466.11766007 -6.02125453 464.86103978 C-6.02551991 425.29055229 -6.03303422 385.72006623 -6.04222387 346.14957961 C-6.05164615 305.50375976 -6.05780969 264.85794069 -6.05984164 224.21211976 C-6.06012981 218.47816568 -6.06045545 212.74421159 -6.06080389 207.01025751 C-6.06087131 205.88167414 -6.06093874 204.75309077 -6.0610082 203.59030791 C-6.06219236 185.38437155 -6.06683697 167.17843763 -6.07275868 148.97250227 C-6.0786311 130.69293915 -6.08089836 112.41337846 -6.07942802 94.13381443 C-6.07866438 83.25838381 -6.08072239 72.38296202 -6.08672419 61.50753298 C-6.09045406 54.25700063 -6.09060454 47.00647411 -6.08775846 39.75594137 C-6.08623826 35.61558241 -6.08635571 31.47524022 -6.09080983 27.33488301 C-6.09482228 23.5768294 -6.09433011 19.81880582 -6.09006662 16.06075273 C-6.08900258 14.05467975 -6.09290153 12.04860606 -6.09693512 10.04253685 C-6.09468783 8.87062113 -6.09244054 7.6987054 -6.09012514 6.49127707 C-6.09028112 5.47319153 -6.0904371 4.455106 -6.09059781 3.40616939 C-5.8586092 -0.82028737 -3.70682928 0.01582074 0 0 Z " fill="#FE4413" transform="translate(1203.9659266471863,102.86513730883598)"/>
<path d="M0 0 C25.61649077 -0.0933695 51.23295611 -0.163943 76.84958267 -0.20724869 C88.74336682 -0.22788916 100.63704535 -0.2560382 112.53076172 -0.30175781 C122.89522646 -0.34158003 133.25961473 -0.367422 143.62415385 -0.37635398 C149.1140265 -0.38157653 154.60368033 -0.39388237 160.09348297 -0.42292023 C165.25789868 -0.45001635 170.42200487 -0.45845673 175.58648491 -0.45243073 C177.48441435 -0.45353356 179.38235385 -0.46152187 181.28022194 -0.4768219 C183.86723131 -0.4966592 186.45306477 -0.49196243 189.0401001 -0.48101807 C189.79496555 -0.49266943 190.54983099 -0.5043208 191.32757115 -0.51632524 C194.81823813 -0.47627824 196.64211671 -0.28504221 199.41315842 1.92200089 C199.93681614 2.60774059 200.46047386 3.2934803 201 4 C201.44529053 4.57057129 201.89058105 5.14114258 202.34936523 5.72900391 C202.94793335 6.59404541 202.94793335 6.59404541 203.55859375 7.4765625 C204.25082031 8.46849609 204.25082031 8.46849609 204.95703125 9.48046875 C205.68986328 10.54201172 205.68986328 10.54201172 206.4375 11.625 C207.50819972 13.15949292 208.57984594 14.69332577 209.65234375 16.2265625 C210.20390137 17.01579102 210.75545898 17.80501953 211.32373047 18.61816406 C214.01250684 22.43868581 216.75601602 26.21903334 219.5 30 C223.70732627 35.8053222 227.87595774 41.63522432 232 47.5 C238.25432876 56.39076572 244.6211553 65.19833001 251 74 C257.88264459 83.49682413 264.7342194 93.0115651 271.48071289 102.60571289 C275.11460686 107.76590195 278.79678074 112.88938149 282.5 118 C286.70685924 123.8056656 290.87595272 129.63521719 295 135.5 C301.25432876 144.39076572 307.6211553 153.19833001 314 162 C320.88264459 171.49682413 327.7342194 181.0115651 334.48071289 190.60571289 C338.11460686 195.76590195 341.79678074 200.88938149 345.5 206 C349.70685924 211.8056656 353.87595272 217.63521719 358 223.5 C364.25432876 232.39076572 370.6211553 241.19833001 377 250 C383.88264459 259.49682413 390.7342194 269.0115651 397.48071289 278.60571289 C401.11460686 283.76590195 404.79678074 288.88938149 408.5 294 C412.70685924 299.8056656 416.87595272 305.63521719 421 311.5 C427.25432876 320.39076572 433.6211553 329.19833001 440 338 C446.87771603 347.4900236 453.72818593 356.99543829 460.46533203 366.5859375 C464.76176812 372.69162372 469.13636518 378.73937539 473.54882812 384.76171875 C476.91462696 389.38595949 480.036082 394.10834382 483 399 C482.66379639 399.46148437 482.32759277 399.92296875 481.98120117 400.3984375 C475.62373202 409.13550595 469.32496918 417.902382 463.23046875 426.82519531 C459.58573849 432.15913794 455.89560488 437.45993388 452.1875 442.75 C451.59702881 443.59248291 451.00655762 444.43496582 450.39819336 445.30297852 C449.195512 447.01836906 447.99263035 448.73361919 446.78955078 450.44873047 C438.83835469 461.78433744 430.90319101 473.13086325 423 484.5 C415.12317003 495.83121508 407.21118259 507.13752975 399.29101562 518.43847656 C392.5107066 528.1141399 385.74373413 537.79880013 379 547.5 C371.12317003 558.83121508 363.21118259 570.13752975 355.29101562 581.43847656 C348.5107066 591.1141399 341.74373413 600.79880013 335 610.5 C328.25927821 620.19686646 321.4951861 629.87709183 314.71777344 639.54833984 C311.81037911 643.69786427 308.90529292 647.84900414 306 652 C302.52454775 656.96562251 299.04868568 661.93095424 295.5703125 666.89453125 C289.36438924 675.75207626 283.17316719 684.61958929 277 693.5 C269.12317003 704.83121508 261.21118259 716.13752975 253.29101562 727.43847656 C246.5107066 737.1141399 239.74373413 746.79880013 233 756.5 C226.26948433 766.18218445 219.51569623 775.84779687 212.74853516 785.50439453 C209.68498924 789.87685562 206.62390372 794.25103891 203.5625 798.625 C200.2549842 803.35009115 200.2549842 803.35009115 198.68373203 805.49477577 C196.94348966 807.93845868 196.94348966 807.93845868 195.80823421 810.6015377 C194.1848059 813.76585857 192.75510744 815.72395689 190 818 C183.78561796 819.49918678 177.66414172 819.26554004 171.30493164 819.13525391 C169.3827428 819.13243167 167.46054318 819.13401943 165.5383606 819.13967896 C160.32931559 819.14254547 155.12257847 819.08380453 149.91406941 819.01393938 C144.46760755 818.95137725 139.0210913 818.94554833 133.57432556 818.9336853 C123.26446088 818.90261795 112.95565802 818.82057656 102.64626068 818.72019041 C90.907657 818.60837166 79.16900229 818.55342292 67.42999852 818.50323606 C43.28607725 818.39874199 19.14309814 818.22287807 -5 818 C-3.89353712 816.25067344 -2.78568105 814.50222804 -1.67724609 812.75415039 C-1.0604599 811.78038956 -0.44367371 810.80662872 0.19180298 809.80335999 C2.4753741 806.26299805 4.89086992 802.83866876 7.375 799.4375 C10.42454997 795.36745396 10.42454997 795.36745396 13 791 C13.66 791 14.32 791 15 791 C15.20882812 790.34515625 15.41765625 789.6903125 15.6328125 789.015625 C17.52118487 784.85041509 20.15846292 781.4130602 22.875 777.75 C24.05939704 776.13209816 25.24297232 774.51359448 26.42578125 772.89453125 C27.02471191 772.07678223 27.62364258 771.2590332 28.24072266 770.41650391 C30.88577773 766.78331557 33.47747314 763.11353438 36.0625 759.4375 C36.55355225 758.74035889 37.04460449 758.04321777 37.55053711 757.32495117 C39.03460167 755.21727281 40.51749602 753.10877628 42 751 C43.97787436 748.18658795 45.95681346 745.37393305 47.9375 742.5625 C48.43072754 741.86229736 48.92395508 741.16209473 49.43212891 740.44067383 C53.05856796 735.30449279 56.7413521 730.2111475 60.4375 725.125 C64.94092371 718.92462426 69.32108331 712.65286363 73.625 706.3125 C77.88661736 700.03472212 82.24925147 693.85904445 86.77050781 687.76611328 C91.18578972 681.79707113 95.42353964 675.70859128 99.66552734 669.61572266 C103.57304241 664.01271455 107.54295989 658.46056473 111.5625 652.9375 C115.98099973 646.86089236 120.27970383 640.71581736 124.5 634.5 C129.27948534 627.46089938 134.18108797 620.52590497 139.18432617 613.64428711 C142.93762474 608.4805893 146.64053382 603.28432204 150.3125 598.0625 C154.10996063 592.6660124 157.93978668 587.2975137 161.83203125 581.96875 C169.92869715 570.88142372 177.91804829 559.72653413 185.76806641 548.46313477 C189.62632398 542.93645592 193.53976113 537.45398677 197.5 532 C203.88231086 523.20743621 210.10716185 514.30875422 216.32421875 505.39892578 C223.46189335 495.18115325 230.68717148 485.03095843 238.00415039 474.94091797 C242.66448033 468.49879892 247.22189744 461.98769232 251.7668457 455.46386719 C255.6414703 449.91226251 259.5794516 444.41170929 263.5625 438.9375 C268.65852424 431.92978726 273.59875932 424.82732026 278.44384766 417.64379883 C280.77014354 414.20469217 283.10365146 410.80506709 285.6640625 407.53515625 C286.41429688 406.57480469 287.16453125 405.61445313 287.9375 404.625 C288.58589844 403.83351563 289.23429687 403.04203125 289.90234375 402.2265625 C291.2585472 400.0484532 291.2585472 400.0484532 290.5234375 397.66015625 C288.51162994 394.14723075 286.16563659 391.00815828 283.6875 387.8125 C282.59618198 386.38263442 281.50639282 384.95160095 280.41796875 383.51953125 C279.85384277 382.77783691 279.2897168 382.03614258 278.70849609 381.27197266 C275.91436772 377.55631694 273.20839154 373.77836331 270.5 370 C266.39520132 364.28502155 262.23969511 358.61563838 258 353 C253.19398161 346.63424477 248.5092235 340.18861038 243.85546875 333.7109375 C240.29352732 328.76332434 236.67328934 323.86541227 233 319 C228.19398161 312.63424477 223.5092235 306.18861038 218.85546875 299.7109375 C215.29352732 294.76332434 211.67328934 289.86541227 208 285 C203.19398161 278.63424477 198.5092235 272.18861038 193.85546875 265.7109375 C190.29352732 260.76332434 186.67328934 255.86541227 183 251 C178.76029046 245.38434251 174.60558689 239.71442604 170.5 234 C166.4107574 228.3102236 162.27893953 222.65872505 158.0625 217.0625 C148.47530565 204.33776498 139.05717673 191.49279692 129.75415039 178.55908203 C125.74507859 172.99868171 121.64920011 167.50912016 117.51904297 162.03833008 C113.2144665 156.32173385 109.03061388 150.52242217 104.85546875 144.7109375 C101.29352732 139.76332434 97.67328934 134.86541227 94 130 C89.19398161 123.63424477 84.5092235 117.18861038 79.85546875 110.7109375 C75.81633315 105.10049139 71.69029225 99.56198966 67.52392578 94.0456543 C63.73694806 89.01772843 60.04487489 83.926357 56.375 78.8125 C52.60310602 73.55757728 48.7866446 68.35387069 44.8125 63.25 C40.96668674 58.30271595 37.2918409 53.26319961 33.67236328 48.15039062 C31.06540465 44.4735712 28.40566011 40.84610599 25.6875 37.25 C20.72479746 30.67705886 15.91704322 23.9954158 11.109375 17.30859375 C9.22043233 14.68333246 7.31917499 12.06895536 5.390625 9.47265625 C4.30007812 8.00119141 4.30007812 8.00119141 3.1875 6.5 C2.56230469 5.6646875 1.93710938 4.829375 1.29296875 3.96875 C0 2 0 2 0 0 Z " fill="#FE4413" transform="translate(2698,102)"/>
<path d="M0 0 C148.17 0 296.34 0 449 0 C449 54.45 449 108.9 449 165 C226.745 164.505 226.745 164.505 0 164 C0 109.88 0 55.76 0 0 Z " fill="#010101" transform="translate(2185,756)"/>
<path d="M0 0 C148.17 0 296.34 0 449 0 C449 54.12 449 108.24 449 164 C300.83 164 152.66 164 0 164 C0 109.88 0 55.76 0 0 Z " fill="#010101" transform="translate(2185,430)"/>
<path d="M0 0 C148.17 0 296.34 0 449 0 C449 54.12 449 108.24 449 164 C300.83 164 152.66 164 0 164 C0 109.88 0 55.76 0 0 Z " fill="#010101" transform="translate(2185,103)"/>
<path d="M0 0 C4.13616236 3.69868365 6.94748658 8.16781441 10 12.75 C14.21059326 18.99183721 18.5040812 25.13212429 23.0625 31.125 C27.65153512 37.1629268 32.07734042 43.2941376 36.42993164 49.50439453 C40.07546432 54.70248968 43.77318427 59.85990837 47.5 65 C52.21061167 71.50043428 56.86297821 78.03864183 61.48046875 84.60546875 C65.11454566 89.7656672 68.79671401 94.8892894 72.5 100 C76.70685924 105.8056656 80.87595272 111.63521719 85 117.5 C91.25432876 126.39076572 97.6211553 135.19833001 104 144 C110.88264459 153.49682413 117.7342194 163.0115651 124.48071289 172.60571289 C128.11460686 177.76590195 131.79678074 182.88938149 135.5 188 C139.70685924 193.8056656 143.87595272 199.63521719 148 205.5 C154.25432876 214.39076572 160.6211553 223.19833001 167 232 C173.88109927 241.49469187 180.73060699 251.00764989 187.47631836 260.59912109 C191.69860762 266.59406361 195.98501315 272.54121227 200.28515625 278.48046875 C203.94255436 283.53241434 207.57747735 288.59956922 211.19628906 293.67919922 C214.56744302 298.40611397 217.97015949 303.1098144 221.375 307.8125 C226.12538944 314.37626995 230.81950981 320.97690434 235.47998047 327.60473633 C239.11418152 332.76520646 242.79654188 337.88905185 246.5 343 C251.21040657 349.50058483 255.86297608 356.0386388 260.48046875 362.60546875 C264.64314222 368.51624656 268.87388204 374.3760445 273.1159668 380.22998047 C278.81415456 388.10387126 284.41283908 396.04710428 290 404 C289.67 404.66 289.34 405.32 289 406 C263.81779655 406.44456701 238.63618404 406.77923857 213.4508419 406.98443127 C201.75560426 407.08225617 190.0628096 407.21552082 178.36914062 407.43334961 C168.1722985 407.62320447 157.97722568 407.74541336 147.77866518 407.7876814 C142.38135594 407.81238 136.98910622 407.87005363 131.59342575 408.00887108 C96.08511155 408.8879751 96.08511155 408.8879751 88.31135559 401.83280945 C85.04641408 397.95071796 82.81357003 393.87894304 80.9248085 389.1868906 C79.70977379 386.31370336 77.98914382 384.03042992 76.02734375 381.62109375 C70.43332013 374.04878053 64.87213523 366.45550092 59.375 358.8125 C54.83158862 352.49578305 50.20716413 346.24819713 45.51904297 340.03833008 C41.2144665 334.32173385 37.03061388 328.52242217 32.85546875 322.7109375 C29.29352732 317.76332434 25.67328934 312.86541227 22 308 C17.19398161 301.63424477 12.5092235 295.18861038 7.85546875 288.7109375 C4.29352732 283.76332434 0.67328934 278.86541227 -3 274 C-7.23970954 268.38434251 -11.39441311 262.71442604 -15.5 257 C-19.5892426 251.3102236 -23.72106047 245.65872505 -27.9375 240.0625 C-37.52469435 227.33776498 -46.94282327 214.49279692 -56.24584961 201.55908203 C-60.25492141 195.99868171 -64.35079989 190.50912016 -68.48095703 185.03833008 C-72.77739463 179.3325425 -76.95811597 173.54743924 -81.11816406 167.74169922 C-83.85014199 163.93921513 -86.61379828 160.16852002 -89.453125 156.4453125 C-90.00677734 155.71828125 -90.56042969 154.99125 -91.13085938 154.2421875 C-92.18375811 152.86541762 -93.24207718 151.49277035 -94.30664062 150.125 C-98.64882367 144.44630371 -98.64882367 144.44630371 -99 141 C-98.08227539 139.07495117 -98.08227539 139.07495117 -96.59765625 137.04296875 C-96.04529297 136.27210938 -95.49292969 135.50125 -94.92382812 134.70703125 C-94.0024707 133.45986328 -94.0024707 133.45986328 -93.0625 132.1875 C-91.76096756 130.37944676 -90.4602164 128.57083091 -89.16015625 126.76171875 C-88.4758252 125.81731934 -87.79149414 124.87291992 -87.08642578 123.89990234 C-83.66337565 119.14223917 -80.33572529 114.31908356 -77 109.5 C-71.44703002 101.50732084 -65.87446425 93.52863049 -60.2890625 85.55859375 C-55.84568452 79.2152193 -51.42033002 72.85945204 -47 66.5 C-40.26534946 56.81176803 -33.50697146 47.14044443 -26.73535156 37.47802734 C-24.9441315 34.92022155 -23.15536561 32.36071448 -21.3671875 29.80078125 C-16.00014193 22.11937286 -10.62789059 14.44221873 -5.1875 6.8125 C-4.77274414 6.23000488 -4.35798828 5.64750977 -3.93066406 5.04736328 C-1.12385804 1.12385804 -1.12385804 1.12385804 0 0 Z " fill="#010101" transform="translate(3207,537)"/>
<path d="M0 0 C1.93233491 0.00367051 3.86468793 0.00160167 5.79701233 -0.00575256 C11.02518707 -0.00947324 16.24946132 0.06678377 21.47673154 0.15770888 C26.94578687 0.23914316 32.41493817 0.24662513 37.88450623 0.26203918 C48.233612 0.30239739 58.58092614 0.40900776 68.92924398 0.53958255 C80.71373888 0.68504142 92.49832074 0.7564034 104.2834903 0.82162321 C128.51868037 0.95739813 152.75228167 1.18596097 176.98608398 1.47583008 C174.77792223 5.36486384 172.60895848 9.17665099 170.02514648 12.83129883 C169.20554443 13.99592651 169.20554443 13.99592651 168.36938477 15.18408203 C167.78914551 16.00223389 167.20890625 16.82038574 166.61108398 17.66333008 C165.35060018 19.45234528 164.0901854 21.24140911 162.82983398 23.03051758 C162.18916992 23.93769531 161.54850586 24.84487305 160.88842773 25.77954102 C157.95190524 29.94162449 155.03121739 34.11473923 152.11108398 38.28833008 C151.25377686 39.51265747 151.25377686 39.51265747 150.37915039 40.76171875 C145.90234238 47.15777969 141.4422668 53.56538753 136.98608398 59.97583008 C129.10925401 71.30704516 121.19726658 82.61335983 113.27709961 93.91430664 C105.81352241 104.56501003 98.37036281 115.22956163 90.94750977 125.90869141 C86.07131852 132.92181906 81.17725909 139.92221264 76.27514648 146.91723633 C71.8317685 153.26061078 67.406414 159.61637804 62.98608398 165.97583008 C55.10930854 177.30708287 47.1972664 188.61336008 39.27709961 199.91430664 C31.81352241 210.56501003 24.37036281 221.22956163 16.94750977 231.90869141 C12.07131852 238.92181906 7.17725909 245.92221264 2.27514648 252.91723633 C-2.1682315 259.26061078 -6.593586 265.61637804 -11.01391602 271.97583008 C-18.89069146 283.30708287 -26.8027336 294.61336008 -34.72290039 305.91430664 C-41.50320962 315.58997027 -48.27011495 325.27467651 -55.01391602 334.97583008 C-60.27593861 342.54450147 -65.54390027 350.10894373 -70.82641602 357.66333008 C-71.40713867 358.49477539 -71.98786133 359.3262207 -72.58618164 360.18286133 C-73.39539062 361.33915039 -73.39539062 361.33915039 -74.22094727 362.51879883 C-74.68992432 363.18935303 -75.15890137 363.85990723 -75.64208984 364.55078125 C-77.06743073 366.55092592 -78.53253165 368.51693188 -80.01391602 370.47583008 C-84.2036921 369.07923805 -85.56607097 366.08070002 -87.88891602 362.53833008 C-88.87522407 361.06825429 -89.86358543 359.5995545 -90.85375977 358.13208008 C-91.3705127 357.36508789 -91.88726563 356.5980957 -92.41967773 355.80786133 C-95.02393447 351.99838807 -97.7360391 348.26902538 -100.45141602 344.53833008 C-104.68183264 338.71354474 -108.87435919 332.86555461 -113.01391602 326.97583008 C-117.13769176 321.11085923 -121.30705984 315.28149145 -125.51391602 309.47583008 C-130.22587038 302.97310921 -134.88026792 296.43311216 -139.4987793 289.86376953 C-143.08787323 284.76678621 -146.72818271 279.70904174 -150.38891602 274.66333008 C-155.65855197 267.3960699 -160.82755389 260.0626654 -165.96313477 252.70019531 C-170.92671052 245.58681292 -175.95249583 238.51983421 -181.01391602 231.47583008 C-177.6149629 224.67792386 -173.39075248 218.84721625 -168.79980469 212.83081055 C-165.25636673 208.17249257 -161.86235225 203.44386501 -158.57641602 198.60083008 C-154.70867765 192.90706689 -150.74867782 187.29347254 -146.70141602 181.72583008 C-141.46583237 174.52115581 -136.33806097 167.24751245 -131.24731445 159.93994141 C-127.37251699 154.38832158 -123.43456599 148.88760491 -119.45141602 143.41333008 C-114.98803064 137.27634451 -110.65070281 131.0669003 -106.38891602 124.78833008 C-102.08064812 118.44210768 -97.67054804 112.19651239 -93.10498047 106.03320312 C-87.61017398 98.60700945 -82.32243852 91.03567366 -77.01391602 83.47583008 C-75.03646718 80.66211761 -73.05732531 77.8496074 -71.07641602 75.03833008 C-70.58334961 74.33836914 -70.0902832 73.6384082 -69.58227539 72.91723633 C-65.95571332 67.78078265 -62.27273639 62.68721493 -58.57641602 57.60083008 C-53.50336098 50.61617809 -48.60449465 43.52677365 -43.75732422 36.3840332 C-39.9736909 30.82759247 -36.08252863 25.36675597 -32.05444336 19.98486328 C-31.4543042 19.17988403 -31.4543042 19.17988403 -30.84204102 18.35864258 C-30.4223426 17.82160296 -30.00264418 17.28456335 -29.57022762 16.73124981 C-27.88201943 14.39900108 -27.88201943 14.39900108 -26.43743992 11.30478382 C-19.91017255 -0.57385399 -12.73668273 -0.33885619 0 0 Z " fill="#010101" transform="translate(3287.013916015625,89.524169921875)"/>
<path d="M0 0 C1.7115477 0.0001133 1.7115477 0.0001133 3.45767212 0.00022888 C4.69415497 0.00539017 5.93063782 0.01055145 7.20458984 0.01586914 C8.46693451 0.01728409 9.72927917 0.01869904 11.02987671 0.02015686 C14.38691033 0.02481461 17.74387635 0.03380131 21.10089111 0.04486084 C24.52607641 0.05508769 27.95126868 0.05965721 31.37646484 0.06469727 C38.09783777 0.07574301 44.81917865 0.09249346 51.54052734 0.11352539 C51.54052734 1.43352539 51.54052734 2.75352539 51.54052734 4.11352539 C46.09552734 5.59852539 46.09552734 5.59852539 40.54052734 7.11352539 C39.67315338 11.45039521 39.4172349 12.75856632 40.36865234 16.70385742 C40.69385864 18.06932205 40.69385864 18.06932205 41.02563477 19.46237183 C41.27804932 20.46358063 41.53046387 21.46478943 41.79052734 22.49633789 C42.05647705 23.57545441 42.32242676 24.65457092 42.59643555 25.76638794 C46.61353451 41.75268633 51.24017509 57.57948822 55.80114746 73.41693115 C56.78935486 76.85395794 57.77160394 80.29267531 58.75384521 83.73141098 C65.82376527 108.52023354 65.82376527 108.52023354 73.54052734 133.11352539 C74.01659424 131.88577393 74.49266113 130.65802246 74.9831543 129.39306641 C75.30294754 128.56833832 75.62274078 127.74361023 75.95222473 126.89389038 C76.68496698 125.00418286 77.417704 123.11447331 78.1504364 121.22476196 C80.24453927 115.82411111 82.33874071 110.42349851 84.43310547 105.02294922 C89.25363301 92.59235622 94.07217947 80.16099986 98.88751221 67.72839355 C102.04971521 59.56508496 105.21724488 51.40385243 108.387146 43.24353027 C110.34041765 38.21315393 112.28693029 33.1802919 114.2227478 28.14317322 C115.00393606 26.11254948 115.78812927 24.08311925 116.57373047 22.05419922 C117.47002413 19.73851423 118.36118346 17.42083097 119.24560547 15.10058594 C121.23278943 9.9899116 123.25046112 5.51277111 126.54052734 1.11352539 C128.35673523 1.2250061 128.35673523 1.2250061 130.54052734 2.11352539 C132.06965637 4.79769897 132.06965637 4.79769897 133.48120117 8.32983398 C133.86396446 9.27457864 133.86396446 9.27457864 134.25446033 10.23840904 C136.82499659 16.65022083 139.18350807 23.14183222 141.48974609 29.65258789 C141.94494184 30.92684925 142.40057726 32.20095362 142.85661316 33.47491455 C143.82023713 36.16902705 144.78137472 38.86400676 145.74041748 41.55975342 C148.01624193 47.95587868 150.30604928 54.34700321 152.59487915 60.73848343 C153.11403701 62.18839671 153.63303887 63.63836585 154.15188599 65.08839035 C159.51492673 80.07647201 164.94952295 95.03769025 170.41552734 109.98852539 C170.82547943 111.11156067 171.23543152 112.23459595 171.6578064 113.3916626 C172.80217005 116.52604132 173.94828389 119.65977281 175.09521484 122.79321289 C175.43264206 123.71716858 175.77006927 124.64112427 176.11772156 125.59307861 C176.42466446 126.42982117 176.73160736 127.26656372 177.04785156 128.12866211 C177.3137912 128.85495819 177.57973083 129.58125427 177.85372925 130.32955933 C178.53194009 132.17635484 178.53194009 132.17635484 179.54052734 134.11352539 C189.30390907 103.63330895 199.04472287 73.1495693 208.22802734 42.48852539 C208.54708038 41.42563293 208.86613342 40.36274048 209.19485474 39.26763916 C210.08815646 36.28756345 210.97753166 33.30635592 211.86474609 30.32446289 C212.25395737 29.02251984 212.25395737 29.02251984 212.65103149 27.6942749 C214.6275969 21.00906338 215.88474297 15.11257651 215.54052734 8.11352539 C213.01572042 5.58871846 211.402297 5.55613906 207.91552734 4.98852539 C206.91263672 4.82094727 205.90974609 4.65336914 204.87646484 4.48071289 C204.10560547 4.35954102 203.33474609 4.23836914 202.54052734 4.11352539 C202.87052734 2.79352539 203.20052734 1.47352539 203.54052734 0.11352539 C219.05052734 0.11352539 234.56052734 0.11352539 250.54052734 0.11352539 C250.87052734 1.43352539 251.20052734 2.75352539 251.54052734 4.11352539 C250.73228516 4.26047852 249.92404297 4.40743164 249.09130859 4.55883789 C241.24396499 6.00828996 241.24396499 6.00828996 235.5300293 11.22485352 C230.67680696 20.48824556 227.2076098 30.25583666 223.79052734 40.11352539 C223.5081723 40.9218985 223.22581726 41.73027161 222.93490601 42.56314087 C218.31338823 55.80197988 213.86694716 69.09816123 209.45068359 82.40649414 C208.9055308 84.04810689 208.36037493 85.68971862 207.81521606 87.33132935 C205.35841969 94.7325862 202.90618896 102.1352633 200.47014427 109.54337883 C195.37140149 125.037253 190.1797345 140.47302559 184.39599609 155.72680664 C183.93558426 156.94321335 183.47517242 158.15962006 183.00080872 159.41288757 C179.80970348 167.70976119 179.80970348 167.70976119 177.54052734 171.11352539 C175.16552734 171.67602539 175.16552734 171.67602539 172.54052734 171.11352539 C168.8809337 166.47365882 166.98694489 161.5183337 165.02099609 155.98852539 C164.68942505 155.07729919 164.357854 154.166073 164.01623535 153.22723389 C163.29360185 151.23872375 162.57457701 149.24889935 161.85873413 147.25793457 C160.30694048 142.94251501 158.73754314 138.63356427 157.16914368 134.32415771 C156.32232009 131.99703945 155.47638491 129.66959774 154.63127136 127.34185791 C149.7349281 113.86505293 144.74827268 100.42191159 139.75650024 86.98022461 C138.49633218 83.58681858 137.23770662 80.19284313 135.97964287 76.79865646 C134.79625805 73.60646034 133.61170064 70.41469976 132.42724609 67.22290039 C131.79695496 65.52239532 131.79695496 65.52239532 131.15393066 63.78753662 C128.33819743 56.20787573 125.45819347 48.65451963 122.54052734 41.11352539 C113.49280967 63.89159762 104.51401221 86.6947503 95.66552734 109.55102539 C94.8570812 111.63755821 94.04856942 113.7240656 93.23999023 115.81054688 C90.1123876 123.88264858 86.985136 131.95484468 83.87503052 140.03370667 C83.10294831 142.03657081 82.3280588 144.03831849 81.55175781 146.03955078 C80.67055785 148.31145748 79.79404065 150.58519026 78.92382812 152.86132812 C73.26902641 167.38502632 73.26902641 167.38502632 69.54052734 171.11352539 C67.87435619 171.15416371 66.2066464 171.15624639 64.54052734 171.11352539 C60.83336018 164.31304696 58.53542355 157.34934836 56.25927734 149.96118164 C55.84928394 148.64755923 55.43870986 147.33411793 55.02760315 146.02084351 C53.92082279 142.4790117 52.82266466 138.93456039 51.72615433 135.38953781 C50.80605098 132.41903019 49.88063067 129.45019111 48.95509052 126.48137379 C43.90573217 110.28440127 38.9060356 94.07210058 33.91943359 77.85571289 C33.69359463 77.12137213 33.46775566 76.38703136 33.23507309 75.63043785 C31.06019233 68.55767192 28.88741632 61.48428035 26.72458076 54.4078207 C24.34943655 46.6369564 21.95629069 38.87186833 19.54052734 31.11352539 C19.2416864 30.14860168 18.94284546 29.18367798 18.63494873 28.18951416 C17.84387142 25.65086532 17.0376366 23.11771442 16.22412109 20.58618164 C16.00611343 19.88198593 15.78810577 19.17779022 15.56349182 18.45225525 C13.93005322 13.4687079 11.93037572 9.35734173 7.15380859 6.87133789 C4.35503309 6.05973483 1.60147798 5.47320381 -1.27197266 4.98852539 C-2.24779297 4.82094727 -3.22361328 4.65336914 -4.22900391 4.48071289 C-4.96505859 4.35954102 -5.70111328 4.23836914 -6.45947266 4.11352539 C-6.78947266 3.12352539 -7.11947266 2.13352539 -7.45947266 1.11352539 C-4.84425481 -0.19408353 -2.92833865 -0.00645009 0 0 Z " fill="#0C0C0C" transform="translate(1974.45947265625,1011.886474609375)"/>
<path d="M0 0 C1.55531642 1.31738557 3.09829666 2.64955903 4.625 4 C5.23730469 4.51820312 5.84960938 5.03640625 6.48046875 5.5703125 C21.34730007 19.11035567 28.80128406 40.58595312 29.78515625 60.19140625 C30.44953668 87.43100378 21.39870945 111.04934547 2.625 131 C-15.15579336 147.87121482 -39.017013 155.63280128 -63.1875 155.4375 C-64.49831543 155.43065186 -65.80913086 155.42380371 -67.15966797 155.41674805 C-91.48698148 155.01485517 -113.81856083 146.2473404 -130.89697266 128.61474609 C-146.46520331 111.60644124 -153.82697467 88.41200992 -153.58984375 65.62109375 C-152.15738532 41.47765795 -141.54368273 19.30226843 -124.0625 2.6875 C-90.54582753 -26.275787 -35.00033609 -27.29287143 0 0 Z M-107.375 5 C-108.07496094 5.61875 -108.77492188 6.2375 -109.49609375 6.875 C-121.66510521 18.28488598 -127.5485281 34.81688552 -128.57958984 51.26342773 C-128.67831833 54.76177377 -128.70392931 58.25031783 -128.6875 61.75 C-128.68258545 62.9870166 -128.6776709 64.2240332 -128.67260742 65.49853516 C-128.55891865 74.36392735 -127.93806226 82.46675255 -125.375 91 C-124.84712891 92.77310547 -124.84712891 92.77310547 -124.30859375 94.58203125 C-120.12968395 107.31184558 -113.82523437 117.53377539 -104.375 127 C-103.66472656 127.721875 -102.95445312 128.44375 -102.22265625 129.1875 C-89.41322293 141.41784501 -71.76834262 146.14585612 -54.375 146 C-36.80758585 144.93299871 -22.55911279 138.06956337 -10.41015625 125.44921875 C-6.98308991 121.32489899 -4.62542196 116.84600067 -2.375 112 C-1.99601562 111.19820312 -1.61703125 110.39640625 -1.2265625 109.5703125 C6.97793132 90.75549586 6.9374453 68.93545062 3.625 49 C3.36589844 47.4221875 3.36589844 47.4221875 3.1015625 45.8125 C0.36387538 32.72848882 -6.13871511 19.64831246 -15.375 10 C-16.08914063 9.23429687 -16.80328125 8.46859375 -17.5390625 7.6796875 C-30.04685378 -4.66077547 -46.53067328 -10.15164081 -63.875 -10.375 C-79.96469954 -10.22129979 -95.27203086 -5.85873867 -107.375 5 Z " fill="#0B0B0B" transform="translate(929.375,1028)"/>
<path d="M0 0 C8.96360845 -0.07010809 17.92711974 -0.12311522 26.89094448 -0.15543652 C31.05508174 -0.1709642 35.2190288 -0.19196033 39.38305664 -0.22631836 C43.41611102 -0.25938008 47.44898474 -0.27694938 51.48216438 -0.28463173 C53.00603129 -0.29009268 54.5298905 -0.30075056 56.05367851 -0.31719017 C69.70460884 -0.45834645 84.91351325 -0.03257119 97 7 C97.76699219 7.43183594 98.53398437 7.86367188 99.32421875 8.30859375 C107.83348804 13.49854477 113.40744683 21.30875893 116.5859375 30.73828125 C119.42947562 46.27043757 115.60661459 60.63428652 106.73046875 73.4921875 C103.35717782 78.05027513 99.28926987 81.95711098 95.07836914 85.73828125 C93.22850276 87.39195045 93.22850276 87.39195045 91 90 C91.29691637 93.23048245 92.64600413 95.11476507 94.703125 97.546875 C95.26467285 98.21871826 95.8262207 98.89056152 96.40478516 99.58276367 C97.01370605 100.29795166 97.62262695 101.01313965 98.25 101.75 C99.53446754 103.28203804 100.8183075 104.81460243 102.1015625 106.34765625 C102.75415039 107.12383301 103.40673828 107.90000977 104.07910156 108.69970703 C106.97005998 112.16165545 109.79539253 115.6754045 112.625 119.1875 C118.19155619 126.06472945 123.8899622 132.81736306 129.69677734 139.49267578 C130.86858157 140.84799974 132.02330579 142.21804621 133.17578125 143.58984375 C144.39508942 156.7427401 154.94791916 162.1565318 172 164 C172.33 165.32 172.66 166.64 173 168 C160.3085616 171.61350951 140.71161374 170.2989652 128.75 164.9375 C115.28665973 157.40155504 105.59531776 143.98556149 96.45996094 131.91455078 C93.65096154 128.23090977 90.78882633 124.5884026 87.9375 120.9375 C83.07845517 114.70638912 78.28312666 108.43511892 73.57421875 102.08984375 C72.16653193 100.12008131 72.16653193 100.12008131 71 99 C69.39970775 98.85438241 67.79349643 98.77274273 66.1875 98.71875 C65.19363281 98.68136719 64.19976563 98.64398437 63.17578125 98.60546875 C62.12777344 98.57066406 61.07976563 98.53585937 60 98.5 C57.95822682 98.43012943 55.91655417 98.35725137 53.875 98.28125 C52.96492188 98.25095703 52.05484375 98.22066406 51.1171875 98.18945312 C47.05934016 97.94282957 43.03621381 97.47838472 39 97 C39.09271517 104.38344096 39.20007643 111.76656732 39.31738281 119.1496582 C39.35554843 121.65872428 39.39042246 124.16784275 39.421875 126.67700195 C39.46779567 130.29397241 39.52574559 133.91058599 39.5859375 137.52734375 C39.59748871 138.64020248 39.60903992 139.75306122 39.62094116 140.89964294 C39.52375851 151.58237015 39.52375851 151.58237015 43.671875 160.98828125 C46.84175453 162.36579601 49.82287418 162.7749756 53.25 163.1875 C54.51328125 163.34605469 55.7765625 163.50460937 57.078125 163.66796875 C58.04234375 163.77753906 59.0065625 163.88710937 60 164 C60 165.32 60 166.64 60 168 C57.48698123 169.25650938 55.76746658 169.12698375 52.95532227 169.12939453 C51.37842369 169.13412277 51.37842369 169.13412277 49.76966858 169.13894653 C48.63009201 169.1369223 47.49051544 169.13489807 46.31640625 169.1328125 C44.56673805 169.13424759 44.56673805 169.13424759 42.78172302 169.13571167 C40.31110582 169.13639318 37.84048683 169.13454091 35.36987305 169.13037109 C31.58182763 169.12502727 27.79390106 169.13031462 24.00585938 169.13671875 C21.60937474 169.13605787 19.21289017 169.1347765 16.81640625 169.1328125 C15.11007774 169.13584885 15.11007774 169.13584885 13.36927795 169.13894653 C12.31486008 169.13579437 11.2604422 169.13264221 10.17407227 169.12939453 C8.78080467 169.12820114 8.78080467 169.12820114 7.35939026 169.12698364 C5 169 5 169 2 168 C2.495 166.02 2.495 166.02 3 164 C7.95 163.01 7.95 163.01 13 162 C13.474375 160.72125 13.94875 159.4425 14.4375 158.125 C14.83775391 157.04605469 14.83775391 157.04605469 15.24609375 155.9453125 C17.37018676 147.6470424 17.14868179 138.94977676 17.14526367 130.44116211 C17.14862228 129.22520859 17.1519809 128.00925507 17.15544128 126.75645447 C17.16326311 123.45074334 17.16661575 120.14509505 17.16725707 116.83937907 C17.1679718 114.76849717 17.17011397 112.6976217 17.17275429 110.62674141 C17.18197727 103.38681754 17.18609263 96.14691197 17.18530273 88.90698242 C17.18470137 82.18135858 17.19527248 75.45581478 17.2110464 68.7302112 C17.22415395 62.93288548 17.22948535 57.13558586 17.22884732 51.33824545 C17.22859347 47.88566959 17.2313827 44.43316513 17.24202538 40.98060417 C17.25357354 37.13018578 17.24893989 33.27987621 17.24291992 29.42944336 C17.24853943 28.29931824 17.25415894 27.16919312 17.25994873 26.00482178 C17.4014393 16.77897366 17.4014393 16.77897366 15 8 C11.74891077 5.93274395 8.53230847 5.45056868 4.75 4.875 C3.67234375 4.70742188 2.5946875 4.53984375 1.484375 4.3671875 C0.25460938 4.18542969 0.25460938 4.18542969 -1 4 C-0.67 2.68 -0.34 1.36 0 0 Z M39 10 C39 35.08 39 60.16 39 86 C47.64218415 88.16054604 54.46899407 89.52233808 63.125 89.5 C64.13175781 89.52835938 65.13851562 89.55671875 66.17578125 89.5859375 C74.10180189 89.60644467 81.0857817 87.85425753 86.88061523 82.14819336 C95.30450682 72.1526494 96.8276317 58.57704597 96 46 C94.27400818 34.28609963 91.21511782 23.93842299 82 16 C75.09647088 11.82892932 68.82178894 8.87715259 60.71875 8.8671875 C59.71199219 8.86589844 58.70523438 8.86460937 57.66796875 8.86328125 C56.62253906 8.86714844 55.57710937 8.87101563 54.5 8.875 C53.45457031 8.87113281 52.40914062 8.86726562 51.33203125 8.86328125 C49.82189453 8.86521484 49.82189453 8.86521484 48.28125 8.8671875 C47.36408203 8.86831543 46.44691406 8.86944336 45.50195312 8.87060547 C42.71881539 8.93422133 42.71881539 8.93422133 39 10 Z " fill="#0D0D0D" transform="translate(2864,1012)"/>
<path d="M0 0 C1.79956055 0.11083984 1.79956055 0.11083984 4 1 C5.61645508 3.62744141 5.61645508 3.62744141 7.20703125 7.2265625 C7.65076836 8.22183456 7.65076836 8.22183456 8.10346985 9.23721313 C11.76348164 17.54761169 15.13383945 25.98503922 18.50427246 34.41586304 C20.14680078 38.52366657 21.79917139 42.62748922 23.45101929 46.73155212 C24.31864226 48.88719767 25.1858461 51.04301195 26.05264282 53.19898987 C33.56940961 71.88895854 41.19679931 90.53415211 48.84069824 109.17242432 C49.97455703 111.93794375 51.10697773 114.70404874 52.23925781 117.47021484 C53.96028299 121.67206145 55.68850271 125.87087673 57.42272949 130.06729126 C58.04469505 131.57454717 58.66465787 133.08263148 59.28234863 134.59164429 C66.250227 153.60998461 66.250227 153.60998461 80.9375 166.3125 C83.42634361 166.87121999 85.72367731 167.19169563 88.25 167.4375 C89.4875 167.623125 90.725 167.80875 92 168 C92.66 168.99 93.32 169.98 94 171 C90.33586476 173.31756554 87.27586988 173.23491388 83 173.1875 C81.93761108 173.17783203 81.93761108 173.17783203 80.85375977 173.16796875 C68.89869774 173.00898195 56.94570181 172.47666177 45 172 C45 168 45 168 46.16381836 166.21557617 C47.50324779 162.66657703 45.78845467 159.85990126 44.37890625 156.55078125 C44.08193344 155.81989792 43.78496063 155.08901459 43.47898865 154.33598328 C42.52122692 151.98860934 41.54233389 149.65073449 40.5625 147.3125 C39.93673588 145.78899195 39.31237283 144.26490763 38.68945312 142.74023438 C37.50539211 139.84962981 36.3135813 136.96253061 35.11157227 134.0793457 C32.05527326 126.72747834 29.03146953 119.3621403 26 112 C7.52 111.67 -10.96 111.34 -30 111 C-30.99 114.3 -31.98 117.6 -33 121 C-33.84880161 123.370704 -34.72320618 125.73247618 -35.62890625 128.08203125 C-36.11188545 129.35721092 -36.59428949 130.63260856 -37.07617188 131.90820312 C-37.81636992 133.85821349 -38.56017893 135.80651376 -39.31420898 137.7512207 C-44.35078838 150.50871269 -44.35078838 150.50871269 -46 164 C-44.41001707 166.16295497 -43.56108954 166.85945941 -40.95703125 167.51171875 C-40.24933594 167.56972656 -39.54164063 167.62773438 -38.8125 167.6875 C-36.9253125 167.8421875 -36.9253125 167.8421875 -35 168 C-34.67 168.99 -34.34 169.98 -34 171 C-37.15338372 173.10225581 -37.90104295 173.25161746 -41.49975586 173.25878906 C-42.40757309 173.26509338 -43.31539032 173.27139771 -44.25071716 173.27789307 C-45.22887894 173.2738446 -46.20704071 173.26979614 -47.21484375 173.265625 C-48.72577354 173.26849518 -48.72577354 173.26849518 -50.26722717 173.27142334 C-52.39812469 173.27278471 -54.52903051 173.26909166 -56.65991211 173.26074219 C-59.92125105 173.25005326 -63.18203774 173.26063352 -66.44335938 173.2734375 C-68.51302205 173.27211568 -70.58268438 173.26955282 -72.65234375 173.265625 C-73.62848129 173.26967346 -74.60461884 173.27372192 -75.6103363 173.27789307 C-76.97679039 173.26843658 -76.97679039 173.26843658 -78.37084961 173.25878906 C-79.17010361 173.25719788 -79.9693576 173.25560669 -80.79283142 173.25396729 C-83.24006479 172.97237701 -84.87747107 172.22068463 -87 171 C-85 168 -85 168 -82.390625 167.41015625 C-81.35421875 167.29542969 -80.3178125 167.18070313 -79.25 167.0625 C-73.48267803 166.20119146 -69.55921402 165.15716123 -65.74609375 160.453125 C-57.71956861 148.67753325 -53.42999179 133.55391259 -48.34347534 120.35025024 C-46.66662405 115.99771092 -44.98397122 111.64742142 -43.30168152 107.29698181 C-42.44122819 105.0717157 -41.58104985 102.84634323 -40.72114563 100.62086487 C-36.1810544 88.87268503 -31.60772823 77.1375744 -27.01928711 65.40820312 C-26.37221433 63.75391358 -25.72516043 62.09961665 -25.078125 60.4453125 C-24.59443199 59.20886993 -24.59443199 59.20886993 -24.10096741 57.94744873 C-21.84376139 52.17247646 -19.60108384 46.39198781 -17.36412048 40.60914612 C-15.7119481 36.34033258 -14.05489325 32.07342277 -12.39724731 27.80673218 C-11.59673425 25.74267625 -10.79842082 23.67776575 -10.00241089 21.61196899 C-8.89662337 18.74297382 -7.78315474 15.87707127 -6.66796875 13.01171875 C-6.34056702 12.15645599 -6.01316528 11.30119324 -5.67584229 10.42001343 C-4.16339702 6.55524231 -2.78859557 3.15290776 0 0 Z M-3 37 C-6.18429962 43.83073003 -8.81982804 50.79108653 -11.328125 57.89453125 C-11.72199402 59.00430832 -12.11586304 60.11408539 -12.52166748 61.25749207 C-13.34705731 63.58725483 -14.17053507 65.91769581 -14.9921875 68.2487793 C-16.25316371 71.82146365 -17.52472974 75.3902641 -18.796875 78.95898438 C-19.59960419 81.22893837 -20.40170964 83.49911306 -21.203125 85.76953125 C-21.77489471 87.36955742 -21.77489471 87.36955742 -22.35821533 89.00190735 C-22.7056781 89.99361435 -23.05314087 90.98532135 -23.41113281 92.00708008 C-23.71883606 92.87706131 -24.02653931 93.74704254 -24.34356689 94.64338684 C-25.17888923 97.23449567 -25.17888923 97.23449567 -25 101 C-9.49 101 6.02 101 22 101 C19.6366999 93.04246013 19.6366999 93.04246013 16.96289062 85.23071289 C16.4071637 83.71478294 16.4071637 83.71478294 15.84020996 82.16822815 C15.44950317 81.11368942 15.05879639 80.0591507 14.65625 78.97265625 C14.24588501 77.86192245 13.83552002 76.75118866 13.41271973 75.60679626 C12.55047472 73.277507 11.68647593 70.94886625 10.82080078 68.62084961 C9.49597562 65.05165797 8.18343718 61.47809363 6.87109375 57.90429688 C6.02939663 55.63513803 5.18697435 53.36624801 4.34375 51.09765625 C3.95304321 50.02894791 3.56233643 48.96023956 3.15979004 47.85914612 C2.78930542 46.87059128 2.4188208 45.88203644 2.03710938 44.86352539 C1.55437561 43.55974693 1.55437561 43.55974693 1.06188965 42.22962952 C-0.01639754 39.9655704 -1.12217549 38.63616628 -3 37 Z " fill="#0C0C0C" transform="translate(2524,1008)"/>
<path d="M0 0 C-0.31216462 2.97920214 -0.62472379 5.95836205 -0.9375 8.9375 C-1.02451172 9.76830078 -1.11152344 10.59910156 -1.20117188 11.45507812 C-1.78081117 16.97238544 -2.38247729 22.48680174 -3 28 C-4.9375 28.5625 -4.9375 28.5625 -7 29 C-9.02286053 26.97713947 -8.86498431 23.1874615 -9.3046875 20.4453125 C-10.09393051 17.66966011 -10.8050845 16.81654512 -13 15 C-18.71345554 12.92095455 -24.94907535 12.63083399 -30.97265625 12.3671875 C-31.69094604 12.32988525 -32.40923584 12.29258301 -33.14929199 12.25415039 C-35.786614 12.11940384 -38.4246012 11.99793879 -41.0625 11.875 C-46.981875 11.58625 -52.90125 11.2975 -59 11 C-59 32.12 -59 53.24 -59 75 C-52.02875 74.87625 -45.0575 74.7525 -37.875 74.625 C-35.68472168 74.59100098 -33.49444336 74.55700195 -31.23779297 74.52197266 C-29.48924268 74.48674574 -27.74070623 74.45082218 -25.9921875 74.4140625 C-25.09443604 74.40270264 -24.19668457 74.39134277 -23.27172852 74.37963867 C-15.15517311 74.28190183 -15.15517311 74.28190183 -8.3125 70.375 C-7.879375 69.92125 -7.44625 69.4675 -7 69 C-6.01 69 -5.02 69 -4 69 C-4.72981394 79.69753587 -5.84078429 90.34196822 -7 101 C-8.32 101 -9.64 101 -11 101 C-11.09796875 100.31292969 -11.1959375 99.62585937 -11.296875 98.91796875 C-11.44640625 98.01691406 -11.5959375 97.11585937 -11.75 96.1875 C-11.95882812 94.84751953 -11.95882812 94.84751953 -12.171875 93.48046875 C-13.19361926 90.42005552 -14.22567631 89.58176368 -17 88 C-21.17051482 86.76646128 -25.38428148 86.67044036 -29.703125 86.46484375 C-30.54091492 86.42186661 -31.37870483 86.37888947 -32.24188232 86.33460999 C-34.91108274 86.19853585 -37.58051925 86.06794709 -40.25 85.9375 C-42.06251829 85.84606493 -43.87501857 85.75427222 -45.6875 85.66210938 C-50.12480196 85.43725975 -54.56232357 85.21732847 -59 85 C-58.91554185 93.38875593 -58.82063747 101.77730144 -58.71247292 110.16578197 C-58.66257187 114.06108745 -58.61624145 117.95636662 -58.578125 121.85180664 C-58.54119373 125.61260387 -58.49481282 129.37317768 -58.44193649 133.13378334 C-58.42343412 134.56702052 -58.40831086 136.00030551 -58.39665604 137.43361473 C-58.37972306 139.44436452 -58.34955528 141.45498957 -58.31884766 143.46557617 C-58.30552399 144.60919113 -58.29220032 145.75280609 -58.2784729 146.93107605 C-57.99552312 150.04933772 -57.44863184 152.23216411 -56 155 C-48.55390987 159.73842099 -40.26218542 159.18249872 -31.75 159.1875 C-30.12771484 159.20586914 -30.12771484 159.20586914 -28.47265625 159.22460938 C-20.44230318 159.23913957 -11.19231509 159.04567724 -4 155 C-2.15540715 151.91629135 -1.28118415 148.70997586 -0.375 145.25 C-0.11460937 144.26515625 0.14578125 143.2803125 0.4140625 142.265625 C0.60742188 141.51796875 0.80078125 140.7703125 1 140 C2.32 139.67 3.64 139.34 5 139 C5.44708159 147.89195604 5.79375647 160.54653489 0.48780823 168.17375183 C-3.11543343 170.81881643 -6.55435928 170.53541563 -10.85180664 170.4699707 C-11.74490036 170.4721611 -12.63799408 170.4743515 -13.55815125 170.47660828 C-16.50919672 170.47891915 -19.45924384 170.45266559 -22.41015625 170.42578125 C-24.45991194 170.42085789 -26.50967212 170.41755866 -28.55943298 170.41581726 C-32.85430263 170.40817608 -37.14883917 170.38761079 -41.44360352 170.35668945 C-46.9540736 170.31708973 -52.46432699 170.29907669 -57.97492313 170.28938007 C-63.22419697 170.27941432 -68.4734177 170.25952064 -73.72265625 170.23828125 C-74.72730486 170.2348855 -75.73195347 170.23148975 -76.76704597 170.2279911 C-79.6039578 170.21643394 -82.44073148 170.19791599 -85.27758789 170.17700195 C-86.12078583 170.17431305 -86.96398376 170.17162415 -87.83273315 170.16885376 C-91.13751178 170.13824099 -93.84326079 170.0522464 -97 169 C-96.505 167.02 -96.505 167.02 -96 165 C-95.30132813 164.89042969 -94.60265625 164.78085938 -93.8828125 164.66796875 C-92.97273438 164.50941406 -92.06265625 164.35085938 -91.125 164.1875 C-90.22007812 164.03667969 -89.31515625 163.88585938 -88.3828125 163.73046875 C-85.65587522 163.16948699 -85.65587522 163.16948699 -84 160 C-80.67262366 146.40050966 -81.70478063 131.77365843 -81.73134899 117.89561963 C-81.73647516 114.37335747 -81.73170015 110.85110483 -81.72857666 107.32884216 C-81.72495938 101.42599586 -81.72968033 95.52319995 -81.73925781 89.62036133 C-81.7501735 82.81451264 -81.74658527 76.00878353 -81.735605 69.20293766 C-81.72651015 63.32823849 -81.72525652 57.45357514 -81.73048234 51.57887119 C-81.73358544 48.08337406 -81.73405666 44.58793308 -81.72740936 41.09243965 C-81.72052376 37.20163487 -81.73008446 33.3109629 -81.74121094 29.42016602 C-81.73716248 28.27559937 -81.73311401 27.13103271 -81.72894287 25.95178223 C-81.76062347 19.96168902 -82.11801018 14.70872874 -84 9 C-86.9062481 6.604309 -90.58640094 6.4325042 -94.25 5.875 C-95.32765625 5.70742188 -96.4053125 5.53984375 -97.515625 5.3671875 C-98.74539062 5.18542969 -98.74539062 5.18542969 -100 5 C-99.67 3.68 -99.34 2.36 -99 1 C-97.43931038 1.00666183 -97.43931038 1.00666183 -95.84709167 1.01345825 C-86.00543128 1.05413506 -76.16378811 1.08404689 -66.32206249 1.10362434 C-61.26325646 1.11402789 -56.2045187 1.12812399 -51.14575195 1.15087891 C-46.25686796 1.17273016 -41.36804934 1.18459437 -36.47912025 1.18975449 C-34.6209644 1.1934283 -32.76281182 1.2006019 -30.90468407 1.21146011 C-17.8629029 1.33701441 -17.8629029 1.33701441 -5.00776672 -0.66702271 C-3 -1 -3 -1 0 0 Z " fill="#0E0E0E" transform="translate(3373,1011)"/>
<path d="M0 0 C0.62003906 0.13277344 1.24007813 0.26554688 1.87890625 0.40234375 C16.88271783 3.39437022 32.09270167 3.15084915 47.32421875 3.1328125 C49.36237093 3.13348841 51.40052302 3.13446081 53.43867493 3.13571167 C57.69048843 3.13717683 61.94228078 3.13507352 66.1940918 3.13037109 C71.58485203 3.12469287 76.97556223 3.12794833 82.36632061 3.13394356 C86.57135886 3.13759696 90.7763857 3.13638861 94.98142433 3.13381577 C96.9661033 3.13315868 98.95078338 3.13393113 100.93546104 3.13629532 C113.98861019 3.14843133 126.96937604 2.77446594 140 2 C140.05585083 6.04164323 140.09370201 10.08308833 140.125 14.125 C140.14175781 15.26710938 140.15851563 16.40921875 140.17578125 17.5859375 C140.18222656 18.69453125 140.18867187 19.803125 140.1953125 20.9453125 C140.20578613 21.96125488 140.21625977 22.97719727 140.22705078 24.02392578 C139.97841818 27.28288429 139.14878364 29.95115207 138 33 C137.01 32.67 136.02 32.34 135 32 C134.41015625 30.07421875 134.41015625 30.07421875 134.0625 27.6875 C133.49001199 24.84309107 133.06417365 23.10160829 131.5 20.625 C121.86625124 14.3630633 109.42981768 15.23664006 98.375 14.8125 C96.49343878 14.73098189 94.6119272 14.64830961 92.73046875 14.56445312 C88.15411014 14.36297806 83.57736104 14.17717791 79 14 C79.08412419 31.37737292 79.17933884 48.75464566 79.28752708 66.13188457 C79.33751323 74.20159219 79.38395695 82.27129036 79.421875 90.34106445 C79.45495808 97.37989693 79.49487756 104.41865291 79.54279006 111.45740062 C79.56789404 115.17961647 79.58972147 118.90178263 79.60334396 122.62405968 C79.61873112 126.79334766 79.64939047 130.96239635 79.68115234 135.1315918 C79.68331253 136.34720291 79.68547272 137.56281403 79.68769836 138.81526184 C79.74417382 150.55285211 79.74417382 150.55285211 82 162 C85.39802446 165.31966203 88.60142106 165.62794883 93.25 166.1875 C94.51328125 166.34605469 95.7765625 166.50460937 97.078125 166.66796875 C98.04234375 166.77753906 99.0065625 166.88710937 100 167 C100.33 168.32 100.66 169.64 101 171 C97.96512633 172.01162456 95.92424992 172.12671816 92.75 172.12939453 C91.67878906 172.13254669 90.60757812 172.13569885 89.50390625 172.13894653 C88.34761719 172.1369223 87.19132812 172.13489807 86 172.1328125 C84.21916016 172.13424759 84.21916016 172.13424759 82.40234375 172.13571167 C79.89062446 172.13639259 77.37890341 172.13454445 74.8671875 172.13037109 C71.01558491 172.12502165 67.16409895 172.13031911 63.3125 172.13671875 C60.87499974 172.13605795 58.43749956 172.13477676 56 172.1328125 C54.84371094 172.13483673 53.68742187 172.13686096 52.49609375 172.13894653 C51.42488281 172.13579437 50.35367187 172.13264221 49.25 172.12939453 C48.30640625 172.12859894 47.3628125 172.12780334 46.390625 172.12698364 C44 172 44 172 41 171 C41 170.01 41 169.02 41 168 C41.75925781 167.85304688 42.51851562 167.70609375 43.30078125 167.5546875 C49.54349097 166.31017371 49.54349097 166.31017371 54.125 162.25 C56.24550629 154.37383377 56.16840698 146.6525161 56.20532227 138.53735352 C56.21491378 137.17672944 56.22492459 135.81610827 56.23532104 134.45549011 C56.26223834 130.7783546 56.28331878 127.10120643 56.30332303 123.42402768 C56.32526436 119.57497457 56.35261301 115.7259599 56.37937927 111.87693787 C56.42919642 104.59566919 56.47417575 97.31437906 56.51740164 90.0330686 C56.56686813 81.74041473 56.62175121 73.44779945 56.67708123 65.15518296 C56.79073263 48.10349102 56.89760802 31.05176319 57 14 C50.73701489 14.21099569 44.47506528 14.4431704 38.21337891 14.68969727 C36.08562784 14.77101156 33.95768947 14.84757544 31.82958984 14.91918945 C28.76077019 15.02330243 25.69304254 15.14479894 22.625 15.26953125 C21.68197021 15.29779495 20.73894043 15.32605865 19.76733398 15.35517883 C13.48827089 15.6328553 6.72646153 16.12882183 2.16015625 20.9375 C1.61681641 21.9584375 1.61681641 21.9584375 1.0625 23 C0.68222656 23.680625 0.30195312 24.36125 -0.08984375 25.0625 C-1.11126944 27.1385707 -1.11126944 27.1385707 -2 30 C-2.99 30.33 -3.98 30.66 -5 31 C-7 28 -7 28 -6.79980469 25.51977539 C-6.59258789 24.55547607 -6.38537109 23.59117676 -6.171875 22.59765625 C-5.83736328 21.01500977 -5.83736328 21.01500977 -5.49609375 19.40039062 C-5.12677734 17.74813477 -5.12677734 17.74813477 -4.75 16.0625 C-4.51925781 14.96486328 -4.28851562 13.86722656 -4.05078125 12.73632812 C-2.13249229 3.8547586 -2.13249229 3.8547586 0 0 Z " fill="#0D0D0D" transform="translate(1587,1009)"/>
<path d="M0 0 C1.06927734 0.00652588 2.13855469 0.01305176 3.24023438 0.01977539 C30.08893415 0.46393415 30.08893415 0.46393415 34 4.375 C34.44574659 14.06343322 33.83271272 23.72445434 33 33.375 C31.68 33.375 30.36 33.375 29 33.375 C28.78085937 32.49457031 28.56171875 31.61414062 28.3359375 30.70703125 C26.40460689 23.50514181 26.40460689 23.50514181 22.4375 17.3125 C10.53243448 10.60237216 -2.27634933 8.68348373 -15.58203125 11.6953125 C-23.36793653 13.88391915 -27.84530923 17.37384289 -32 24.375 C-34.15563497 30.8419049 -34.04728818 38.77361186 -31.5 45.125 C-24.54419396 58.18488073 -11.30662462 65.75740695 0.6015625 73.8203125 C17.63763994 85.38494901 34.81563527 98.70167141 39.5 119.875 C41.24464675 133.22448808 38.68664298 145.26077292 30.75 156.1875 C21.68037917 167.04743643 10.7046671 172.01720781 -3 174.375 C-7.98842933 174.77081158 -12.93560786 174.79610039 -17.9375 174.75 C-19.81985352 174.76740234 -19.81985352 174.76740234 -21.74023438 174.78515625 C-33.33609944 174.74927425 -44.93188469 173.4948348 -55 167.375 C-56.5554912 164.26401761 -56.14646758 160.97436472 -56.125 157.5625 C-56.12161621 156.80437012 -56.11823242 156.04624023 -56.11474609 155.26513672 C-55.94787534 136.79681301 -55.94787534 136.79681301 -53 132.375 C-52.01 132.705 -51.02 133.035 -50 133.375 C-49.90203125 134.1484375 -49.8040625 134.921875 -49.703125 135.71875 C-48.38885789 144.87330024 -46.6147267 152.14426409 -39.12109375 158.05859375 C-27.82924892 165.06660794 -13.50009135 165.99022191 -0.75 163.25 C6.71344084 161.17899285 12.84126844 156.99816508 17 150.375 C20.68571931 142.50894105 21.28557964 134.12141438 18.9375 125.75 C15.12271629 115.87023757 7.18480933 109.61104521 -1 103.375 C-1.78874512 102.77171875 -2.57749023 102.1684375 -3.39013672 101.546875 C-6.99179342 98.79411831 -10.59507091 96.04373373 -14.21142578 93.31030273 C-47.28444381 68.29321478 -47.28444381 68.29321478 -51 50.375 C-52.33585812 38.59197141 -51.13759785 27.9752401 -44.1875 18.0625 C-32.98492506 4.37356803 -17.26571407 -0.23216945 0 0 Z " fill="#0C0C0C" transform="translate(464,1008.625)"/>
<path d="M0 0 C-0.06058594 0.69222656 -0.12117188 1.38445313 -0.18359375 2.09765625 C-0.58216552 6.75174816 -0.97181796 11.4036528 -1.25390625 16.06640625 C-1.29523682 16.7411499 -1.33656738 17.41589355 -1.37915039 18.11108398 C-1.49583674 20.05562075 -1.6073885 22.00046352 -1.71875 23.9453125 C-2 27 -2 27 -3 29 C-4.32 29 -5.64 29 -7 29 C-7.18175781 28.24074219 -7.36351562 27.48148438 -7.55078125 26.69921875 C-7.80214844 25.70535156 -8.05351563 24.71148438 -8.3125 23.6875 C-8.55613281 22.70136719 -8.79976562 21.71523437 -9.05078125 20.69921875 C-10.04588632 17.86951667 -10.58865648 16.72999259 -13 15 C-18.39241274 12.70235401 -23.44843128 12.6571419 -29.2109375 12.5859375 C-30.06985596 12.56829346 -30.92877441 12.55064941 -31.8137207 12.5324707 C-35.00062868 12.46973962 -38.18784097 12.42332152 -41.375 12.375 C-48.51125 12.25125 -55.6475 12.1275 -63 12 C-63 32.79 -63 53.58 -63 75 C-36.35630541 77.24385807 -36.35630541 77.24385807 -10 71 C-8.66666667 70.33333333 -7.33333333 69.66666667 -6 69 C-4.89608962 72.31173115 -5.12638217 73.31262246 -5.875 76.625 C-7.05554394 82.49623855 -7.38441436 88.27781911 -7.56982422 94.24853516 C-7.72196109 97.99178984 -7.87365223 99.81047834 -10 103 C-11.485 102.505 -11.485 102.505 -13 102 C-13.09796875 101.32453125 -13.1959375 100.6490625 -13.296875 99.953125 C-13.93290277 96.15889036 -14.5087271 92.85438764 -16.4375 89.5 C-25.2797054 84.32407489 -37.26322677 85.76128549 -47.1875 85.875 C-48.72720768 85.88505603 -50.26692176 85.89417721 -51.80664062 85.90234375 C-55.53789587 85.92413532 -59.26890554 85.95851858 -63 86 C-63.02576632 92.48802828 -63.0430374 98.97604296 -63.05493164 105.46411133 C-63.05990034 107.66235853 -63.06667759 109.86060254 -63.07543945 112.05883789 C-63.11742613 122.87905169 -63.13079376 133.69888474 -62.68359375 144.51171875 C-62.66136246 145.24542191 -62.63913116 145.97912506 -62.6162262 146.73506165 C-62.35020895 152.00850254 -61.44224601 157.2665358 -59 162 C-55.86091535 163.70785668 -55.86091535 163.70785668 -52 164 C-51.18917969 164.10570312 -50.37835937 164.21140625 -49.54296875 164.3203125 C-47.36352419 164.5880238 -45.18750893 164.81150717 -43 165 C-42.67 166.32 -42.34 167.64 -42 169 C-45.03916596 170.01305532 -47.08663331 170.12672249 -50.26586914 170.12939453 C-51.87752708 170.13412277 -51.87752708 170.13412277 -53.52174377 170.13894653 C-54.68116989 170.1369223 -55.84059601 170.13489807 -57.03515625 170.1328125 C-58.22475449 170.13376923 -59.41435272 170.13472595 -60.63999939 170.13571167 C-63.15591484 170.13639254 -65.67183206 170.13454475 -68.18774414 170.13037109 C-72.05033285 170.12501687 -75.91280552 170.1303217 -79.77539062 170.13671875 C-82.21614609 170.13605804 -84.65690148 170.13477704 -87.09765625 170.1328125 C-88.2591066 170.13483673 -89.42055695 170.13686096 -90.61720276 170.13894653 C-92.22413246 170.13421829 -92.22413246 170.13421829 -93.86352539 170.12939453 C-94.80933975 170.12859894 -95.75515411 170.12780334 -96.72962952 170.12698364 C-99 170 -99 170 -101 169 C-100.505 167.02 -100.505 167.02 -100 165 C-95.05 164.01 -95.05 164.01 -90 163 C-84.22968947 146.69260068 -85.85123541 128.57422763 -85.8671875 111.51171875 C-85.86651259 108.95636486 -85.86554102 106.40101102 -85.86428833 103.84565735 C-85.86282148 98.51615726 -85.86483654 93.18667459 -85.86962891 87.85717773 C-85.87508279 81.72168225 -85.87329494 75.58621995 -85.8678025 69.45072526 C-85.86269725 63.50641653 -85.86326305 57.56211799 -85.86618423 51.61780739 C-85.86684859 49.10572111 -85.86604235 46.59363397 -85.86370468 44.08154869 C-85.86115182 40.56956135 -85.86505512 37.05763698 -85.87060547 33.5456543 C-85.86858124 32.52048706 -85.86655701 31.49531982 -85.86447144 30.43908691 C-85.48001908 19.27983562 -85.48001908 19.27983562 -88.8125 9 C-93.55707672 6.02301069 -98.4968852 5.58805214 -104 5 C-104.33 4.01 -104.66 3.02 -105 2 C-101.7937167 0.39685835 -98.3132381 0.88879729 -94.79345703 0.91821289 C-93.94437271 0.92127945 -93.09528839 0.92434601 -92.22047424 0.92750549 C-90.37126864 0.93467235 -88.52207067 0.94406842 -86.67288589 0.95540047 C-83.73739365 0.97277712 -80.80195584 0.9830877 -77.86642456 0.99131775 C-69.51766801 1.01576834 -61.16898381 1.05105409 -52.8203125 1.09594727 C-47.71516279 1.12290029 -42.61005629 1.13983553 -37.50484848 1.15081596 C-35.56657197 1.15698527 -33.62830338 1.16693899 -31.69006729 1.18089485 C-17.8142191 1.28680188 -17.8142191 1.28680188 -4.09713745 -0.66578674 C-2 -1 -2 -1 0 0 Z " fill="#090909" transform="translate(1326,1011)"/>
</svg>
